# xmcd
#
# Track frame offsets: 
#        150
#        18978
#        37280
#        50873
#        72173
#        91300
#        105814
#        122925
#        146027
#        156439
#        170303
#        188076
#        213983
#        232737
#        265685
#
# Disc length: 4032 seconds
#
# Revision: 0
# Processed by: cddbd v1.5.2PL0 Copyright (c) Steve Scherf et al.
# Submitted via: ExactAudioCopy v0.99pb4
#
DISCID=ce0fbe0f
DTITLE=Rob Tognoni - Capital Wah
DYEAR=2008
DGENRE=Blues
TTITLE0=The Rain
TTITLE1=Isolate
TTITLE2=My Detonation
TTITLE3=Shoot To Kill
TTITLE4=Dogs With Fleas
TTITLE5=I Got You - You Got Me
TTITLE6=The Good Die Young
TTITLE7=Let Your Love Fly
TTITLE8=Reboot
TTITLE9=God Bless America
TTITLE10=Ballad Of Jullie-Ann
TTITLE11=Like A Rolling Stone
TTITLE12=Stupify Me
TTITLE13=Product Of A Southern Land
TTITLE14=Red House
EXTD=
EXTT0=
EXTT1=
EXTT2=
EXTT3=
EXTT4=
EXTT5=
EXTT6=
EXTT7=
EXTT8=
EXTT9=
EXTT10=
EXTT11=
EXTT12=
EXTT13=
EXTT14=
PLAYORDER=
